<?xml version="1.0" encoding="UTF-8" standalone="no"?>
<svg
   viewBox="0 0 108 108"
   width="108"
   height="108"
   version="1.1"
   id="svg3"
   xmlns="http://www.w3.org/2000/svg"
   xmlns:svg="http://www.w3.org/2000/svg">
  <defs
     id="defs3" />
  <!-- receipt -->
  <!-- bottom coin (solid) -->
  <!-- top coin with dollar sign (glyph from Material Icons, Apache 2.0) -->
  <path
     d="m 34.021484,27.777344 c -2.153616,0 -3.888672,1.733226 -3.888672,3.886718 v 22.007813 3.669922 18.02539 l 3.701172,5.41211 3.701172,-5.41211 3.701172,5.41211 3.701172,-5.41211 3.701172,5.41211 3.701172,-5.41211 3.701172,5.41211 0.80664,-1.179688 c -0.0081,-0.0075 -0.01555,-0.01569 -0.02344,-0.02344 -0.05834,-0.0543 -0.109345,-0.115874 -0.166016,-0.171875 -0.0033,-0.0032 -0.0065,-0.0066 -0.0098,-0.0098 -0.16889,-0.162765 -0.331338,-0.331222 -0.492187,-0.501953 -0.0019,-0.002 -0.004,-0.0038 -0.0059,-0.0059 -0.01425,-0.01514 -0.02714,-0.03144 -0.04102,-0.04687 -0.0038,-0.004 -0.008,-0.0077 -0.01172,-0.01172 -0.141499,-0.151993 -0.283036,-0.302965 -0.417969,-0.460938 -0.0036,-0.0042 -0.0081,-0.0075 -0.01172,-0.01172 -0.15784,-0.185191 -0.306579,-0.377255 -0.455078,-0.570313 -0.002,-0.0026 -0.0039,-0.0052 -0.0059,-0.0078 -0.01643,-0.02139 -0.03239,-0.04309 -0.04883,-0.06445 -0.06731,-0.08864 -0.132599,-0.178616 -0.199219,-0.267579 -0.04724,-0.06527 -0.09836,-0.127277 -0.144531,-0.193359 -5.23e-4,-7.48e-4 -0.0014,-0.0012 -0.002,-0.002 -0.152636,-0.218555 -0.292943,-0.444746 -0.433594,-0.671875 -0.0069,-0.01124 -0.01456,-0.02195 -0.02148,-0.0332 -0.01393,-0.02264 -0.027,-0.04579 -0.04102,-0.06836 -0.08678,-0.142747 -0.177839,-0.281809 -0.259765,-0.427734 -0.0014,-0.0025 -0.0025,-0.0053 -0.0039,-0.0078 -0.141887,-0.253077 -0.267707,-0.515185 -0.394531,-0.777344 -0.08202,-0.16953 -0.170578,-0.334686 -0.246094,-0.507813 -0.002,-0.0045 -0.0039,-0.0091 -0.0059,-0.01367 -0.109824,-0.252473 -0.201283,-0.513745 -0.296875,-0.773437 -0.0017,-0.0047 -0.0041,-0.009 -0.0059,-0.01367 -9.21e-4,-0.0025 -0.001,-0.0053 -0.002,-0.0078 -0.158636,-0.433087 -0.296802,-0.874892 -0.414062,-1.326172 -0.005,-0.01897 -0.01076,-0.03762 -0.01563,-0.05664 -0.01365,-0.05344 -0.02655,-0.107074 -0.04102,-0.160156 -0.03443,-0.141541 -0.07915,-0.278746 -0.109375,-0.421875 -0.0013,-0.0059 -0.0027,-0.01167 -0.0039,-0.01758 -3.93e-4,-0.0019 3.92e-4,-0.004 0,-0.0059 -0.06641,-0.317061 -0.109038,-0.642509 -0.154297,-0.966797 -0.0016,-0.0118 -0.0041,-0.02339 -0.0059,-0.03516 C 52.336432,70.803773 52.303249,70.65474 52.287109,70.5 v -0.002 -0.002 c -0.05201,-0.499182 -0.08023,-1.004702 -0.08008,-1.517578 -6.6e-5,-0.214659 0.0045,-0.428231 0.01367,-0.640625 H 35.382812 c -0.706434,0 -1.27539,-0.495524 -1.27539,-1.111329 0,-0.615801 0.568956,-1.113281 1.27539,-1.113281 h 17.107422 c 1.26e-4,-6.27e-4 -1.26e-4,-0.0013 0,-0.002 2.83e-4,-0.0014 0.0017,-0.0025 0.002,-0.0039 0.01565,-0.07776 0.0417,-0.151212 0.05859,-0.228516 0.08238,-0.376941 0.179851,-0.747917 0.291016,-1.113281 v -0.002 c 1.28e-4,-3.11e-4 0.0013,-0.001 0.002,-0.002 4.13e-4,-0.0014 0.0015,-0.0026 0.002,-0.0039 v -0.002 c 0.03107,-0.101869 0.05659,-0.205736 0.08984,-0.30664 8.29e-4,-0.0025 0.0011,-0.0053 0.002,-0.0078 0.149483,-0.452809 0.319939,-0.896276 0.511719,-1.328125 0.0014,-0.0032 0.0025,-0.0066 0.0039,-0.0098 0.0012,-0.0026 0.0027,-0.0052 0.0039,-0.0078 0.04081,-0.09155 0.08821,-0.17899 0.13086,-0.269531 0.0012,-0.0026 0.0027,-0.0052 0.0039,-0.0078 0.134311,-0.284752 0.281619,-0.559749 0.433594,-0.833984 v -0.002 h 0.002 c 4.25e-4,-7.67e-4 0.0015,-0.0012 0.002,-0.002 v -0.002 l 0.002,-0.002 c 0.326459,-0.588261 0.67766,-1.160857 1.080078,-1.695312 H 35.382812 c -0.706434,0 -1.27539,-0.497477 -1.27539,-1.113281 0,-0.615802 0.568956,-1.111328 1.27539,-1.111328 h 20.994141 c 0.232719,0 0.451218,0.0543 0.638672,0.148437 2.563112,-2.301859 5.951092,-3.703125 9.664062,-3.703125 2.898829,3.4e-5 5.600112,0.854226 7.865235,2.324219 V 53.671875 31.664062 c 0,-2.153492 -1.733102,-3.886718 -3.886719,-3.886718 z m 0.261719,4.0625 h 36.111328 v 4.095703 H 34.283203 Z m 1.099609,10.103515 h 20.994141 c 0.706436,0 1.275391,0.495525 1.275391,1.111328 0,0.615803 -0.568955,1.113282 -1.275391,1.113282 H 35.382812 c -0.706434,0 -1.27539,-0.49748 -1.27539,-1.113282 0,-0.615803 0.568956,-1.111328 1.27539,-1.111328 z m 26.921875,0 h 6.992188 c 0.706435,0 1.275391,0.495525 1.275391,1.111328 0,0.615803 -0.568956,1.113282 -1.275391,1.113282 h -6.992188 c -0.706435,0 -1.27539,-0.49748 -1.27539,-1.113282 0,-0.615803 0.568957,-1.111328 1.27539,-1.111328 z M 35.382812,50 h 20.994141 c 0.706436,0 1.275391,0.495524 1.275391,1.111328 0,0.615802 -0.568955,1.113281 -1.275391,1.113281 H 35.382812 c -0.706434,0 -1.27539,-0.497479 -1.27539,-1.113281 C 34.107422,50.495524 34.676378,50 35.382812,50 Z m 26.921875,0 h 6.992188 c 0.706435,0 1.275391,0.495524 1.275391,1.111328 0,0.615802 -0.568956,1.113281 -1.275391,1.113281 h -6.992188 c -0.706435,0 -1.27539,-0.497479 -1.27539,-1.113281 C 61.029297,50.495524 61.598254,50 62.304687,50 Z"
     style="fill:#000000;stroke-width:0.941134"
     id="path144" />
  <path
     d="m 66.679687,58.111328 c -5.998508,0 -10.865234,4.869036 -10.865234,10.867188 0,5.998151 4.866725,10.865234 10.865234,10.865234 5.99851,0 10.867188,-4.867083 10.867188,-10.865234 0,-5.998152 -4.868678,-10.867188 -10.867188,-10.867188 z m -1.36914,2.173828 h 2.902344 v 2.119141 c 2.021236,0.48898 3.032455,2.021062 3.097656,3.683594 h -2.13086 c -0.05433,-1.20615 -0.695144,-2.03125 -2.412109,-2.03125 -1.63003,0 -2.607422,0.738093 -2.607422,1.78125 0,0.912762 0.705284,1.511128 2.900391,2.076171 2.195106,0.565044 4.542969,1.509761 4.542969,4.248047 -0.01087,1.988518 -1.499791,3.075009 -3.390625,3.433594 v 2.076172 H 65.310547 V 75.574219 C 63.452313,75.183035 61.87735,73.986952 61.757812,71.878906 h 2.128907 c 0.108668,1.140953 0.892223,2.033203 2.880859,2.033203 2.129906,0 2.607422,-1.065676 2.607422,-1.728515 0,-0.901896 -0.47708,-1.74831 -2.900391,-2.324219 -2.694982,-0.651973 -4.542968,-1.760707 -4.542968,-3.988281 0,-1.86899 1.509805,-3.086231 3.378906,-3.488282 z"
     style="fill:#000000;fill-rule:evenodd;stroke-width:0.736206"
     id="path143" />
  <path
     d="m 66.679687,54.501953 c -7.989473,0 -14.475146,6.487558 -14.472656,14.476563 -0.0024,7.989004 6.483184,14.476562 14.472656,14.476562 7.989477,0 14.477101,-6.487558 14.47461,-14.476562 0.0025,-7.989005 -6.485131,-14.476563 -14.47461,-14.476563 z m 0,2.359375 c 6.677177,0 12.117188,5.43846 12.117188,12.115234 0,6.676778 -5.440011,12.119141 -12.117188,12.119141 -6.677171,0 -12.115234,-5.442364 -12.115234,-12.119141 0,-6.676774 5.438063,-12.115234 12.115234,-12.115234 z"
     style="baseline-shift:baseline;display:inline;overflow:visible;vector-effect:none;fill:#000000;enable-background:accumulate;stop-color:#000000;stop-opacity:1"
     id="path142" />
</svg>
